<svg xmlns="http://www.w3.org/2000/svg" width="402" height="386" fill="none">
  <g clip-path="url(#a)">
    <path fill="#2D9596" fill-opacity=".25" d="M-.0001 172.176c-.0599 40.643 14.3164 79.986 40.5657 111.015.9532 1.132 1.9243 2.246 2.9132 3.354a173.1194 173.1194 0 0 0 40.2082 33.357 172.091 172.091 0 0 0 10.557 5.845c.3634.185.7328.369 1.0962.548.4349.22.8758.435 1.3167.649a170.456 170.456 0 0 0 28.3111 10.855c1.012.286 2.027.564 3.044.834a171.8683 171.8683 0 0 0 39.225 5.654c.691.018 1.37.03 2.026.042.232.006.459.012.685.012.745.006 1.483.012 2.228.012 13.962.01 27.874-1.677 41.43-5.023 1.358-.333 2.71-.685 4.057-1.054 7.092-1.936 14.051-4.33 20.834-7.167 3.574-1.49 7.085-3.096 10.533-4.82.78-.393 1.561-.786 2.329-1.192.328-.16.65-.333.971-.5a173.0298 173.0298 0 0 0 48.645-38.165c.953-1.066 1.888-2.15 2.812-3.241 25.308-29.973 97.801-74.523 97.801-116.822 0-56.884-84.82-101.514-127.345-132.8631-.977-.7209-1.96-1.4358-2.955-2.1329-.197-.137-.393-.274-.59-.411a170.8365 170.8365 0 0 0-57.849-26.1244c-1.18-.2919-2.359-.566-3.551-.8221a173.8408 173.8408 0 0 0-68.322-1.1975c-1.186.2204-2.371.4468-3.551.691a171.1524 171.1524 0 0 0-57.8487 23.4911c-.3932.2502-.7864.5004-1.1796.7626a124.0316 124.0316 0 0 0-2.3652 1.5669A171.9893 171.9893 0 0 0-.0001 172.176Z"/>
    <path fill="#A17BF8" d="M215.768 259.879c-.027.365.091.726.328 1.006.238.279.575.453.94.486l53.662 4.763.59.054V31.373c-.197-.137-.393-.2741-.59-.4111a171.7734 171.7734 0 0 0-36.943-19.6245l-2.812 38.7843-.257 3.5508-2.782 38.4626-.858 11.8319-11.278 155.912ZM79.5764 27.0001c-.3932.2502-.7864.5004-1.1796.7626V266.188l1.1796-.107 54.4356-4.832-.102-1.37-11.278-155.912-.858-11.8318-2.782-38.4627-.256-3.5507-2.949-40.673a171.4034 171.4034 0 0 0-36.2106 17.5513Z"/>
    <path fill="#3F3D56" d="M90.3652 37.7626A124.8265 124.8265 0 0 0 88 39.3294V279.441c0 5.999 3.5567 11.027 8.3109 12.308a9.049 9.049 0 0 0 2.3831.316h176.823c.803.001 1.603-.105 2.377-.316a10.152 10.152 0 0 0 4.635-2.776 13.652 13.652 0 0 0 3.682-9.532V43.5058c-.977-.7209-1.96-1.4358-2.955-2.1329-.196-.137-.393-.274-.59-.4111V279.441c.002.773-.09 1.543-.274 2.294-.84 3.544-3.61 6.142-6.875 6.142H98.694c-3.944 0-7.1492-3.783-7.1492-8.436V37c-.3932.2502-.7864.5004-1.1796.7626Z"/>
    <path fill="#3F3D56" d="M272.47 50.1241H77.8026v3.5502H272.47v-3.5502Z"/>
    <path fill="#3F3D56" d="M212.849 4.8376c-1.179-.292-2.359-.566-3.551-.8221v96.4005h3.551V4.8376ZM140.976 2.818c-1.186.2204-2.371.4468-3.551.691v96.907h3.551V2.818ZM39.6363 275.851a15.9132 15.9132 0 0 0 1.1498 5.946c.2921.733.6406 1.442 1.0426 2.121a16.1623 16.1623 0 0 0 1.7992 2.49 15.9379 15.9379 0 0 0 5.4074 4.008 15.9507 15.9507 0 0 0 6.5794 1.42H288.744a15.9783 15.9783 0 0 0 15.978-15.979c0-4.237-1.683-8.302-4.68-11.298a15.974 15.974 0 0 0-11.298-4.68H55.6147a15.9943 15.9943 0 0 0-11.2917 4.682 15.9957 15.9957 0 0 0-4.6867 11.29Z"/>
    <path fill="#3F3D56" d="M77.8026 103.968H271.287V92.1345H77.8026v11.8335Z"/>
    <path fill="#3F3D56" d="M182.828 95.093h-16.567c0-1.7262.686-3.3817 1.906-4.6023a6.5096 6.5096 0 0 1 4.603-1.9064h3.55c1.726 0 3.382.6858 4.602 1.9064a6.5066 6.5066 0 0 1 1.906 4.6023Z"/>
    <path fill="#A17BF8" d="M344.085 214.924H294.66a2.4002 2.4002 0 0 1-1.693-.703 2.4011 2.4011 0 0 1-.702-1.692v-57.17c0-1.196 15.997-11.088 22.874-15.285a8.0244 8.0244 0 0 1 4.235-1.208c1.497 0 2.964.419 4.235 1.21 6.875 4.195 22.871 14.087 22.871 15.283v57.17a2.3969 2.3969 0 0 1-.702 1.692c-.449.449-1.058.702-1.693.703Z"/>
    <path fill="#7EBD28" d="m349.417 145.672-9.091-18.534a1.9644 1.9644 0 0 0-.606-.72 1.9566 1.9566 0 0 0-.872-.353s0-.006-.006 0c-.216-.03-.435-.024-.649.018-.169.036-.333.092-.489.167l-29.937 14.68-.042.023a1.959 1.959 0 0 0-.751.683c-.187.29-.293.624-.309.968-.017.327.051.653.196.947l4.939 10.068 1.722 3.515 1.466 2.979h9.419l6.077-2.979 18.027-8.841c.468-.227.826-.631.996-1.123.17-.492.138-1.03-.09-1.498Z"/>
    <path fill="#7EBD28" d="m349.417 145.672-9.091-18.534a1.9644 1.9644 0 0 0-.606-.72 1.9566 1.9566 0 0 0-.872-.353s0-.006-.006 0c-.216-.03-.435-.024-.649.018-.169.036-.333.092-.489.167l-29.937 14.68-.042.023a1.959 1.959 0 0 0-.751.683c-.187.29-.293.624-.309.968-.017.327.051.653.196.947l4.939 10.068 1.722 3.515 1.466 2.979h9.419l6.077-2.979 18.027-8.841c.468-.227.826-.631.996-1.123.17-.492.138-1.03-.09-1.498Zm-2.729 1.501c-3.193 1.627-11.706 5.904-19.982 9.961-.107.054-.22.108-.327.161-.852.423-1.251.614-1.4.685.137-.077.435-.232.482-.262-.018-.006-.28.113-1.09.495a8.0863 8.0863 0 0 1-8.597-1.079 7.9257 7.9257 0 0 1-2.055-2.603l-.769-1.573-4.379-8.925-.524-1.066a.6395.6395 0 0 1-.064-.242.6377.6377 0 0 1 .035-.249.6383.6383 0 0 1 .127-.216.6443.6443 0 0 1 .2-.151l.089-.042 29.848-14.643a.6408.6408 0 0 1 .243-.065c.084-.005.168.007.248.035.08.027.153.071.216.127.063.056.115.124.151.2l.745 1.526 7.614 15.507c.206.43.237.923.086 1.374-.152.452-.473.827-.897 1.045Z"/>
    <path fill="#689C22" d="m317.516 150.823 22.809-11.187a1.0925 1.0925 0 0 0 .605-1.098l-1.298-11.556a1.077 1.077 0 0 0-.129-.403 1.0649 1.0649 0 0 0-.274-.323 1.0801 1.0801 0 0 0-.799-.226c-.124.014-.244.049-.355.104l-30.617 14.95h-.002c-.162.078-.302.196-.407.341-.105.146-.173.316-.196.494-.023.179-.001.36.063.528.064.168.17.317.306.434l.042-.049-.042.049 9.106 7.793c.162.139.361.226.572.253.211.026.425-.01.616-.104Z"/>
    <path fill="#fff" d="M329.742 147.833c1.346-.66 1.905-2.28 1.248-3.619-.656-1.338-2.28-1.888-3.626-1.228-1.346.66-1.905 2.281-1.248 3.619.656 1.339 2.28 1.889 3.626 1.228Z"/>
    <path fill="#FFB6B6" d="M313.219 152.761c-.68.562-1.476.968-2.33 1.189-.855.221-1.747.252-2.615.091a6.0467 6.0467 0 0 1-2.407-1.024 6.0391 6.0391 0 0 1-1.748-1.947l-26.722 9.586-28.635-6.885 5.183-12.06 21.633 6.978 31.184-6.106a6.0717 6.0717 0 0 1 4.296-.362 6.0644 6.0644 0 0 1 3.453 2.583 6.0704 6.0704 0 0 1 .866 4.224 6.0665 6.0665 0 0 1-2.158 3.733Z"/>
    <path fill="#7EBD28" d="M230.128 148.127c5.206 1.467 33.514 11.585 41.023 11.637a4.7395 4.7395 0 0 0 1.615 2.614 4.7393 4.7393 0 0 0 2.878 1.077l1.85-15.499c-2.319-2.67-4.223-1.275-5.122-.216l-9.017-5.098-33.21-15.601a8.9476 8.9476 0 0 0-4.618-.811c-1.583.145-3.1.71-4.392 1.637a8.9357 8.9357 0 0 0-2.654 3.02 8.9392 8.9392 0 0 0-1.065 3.877 8.957 8.957 0 0 0 3.134 7.182c3.231 2.775 6.825 5.405 9.578 6.181Zm-58.124 64.964a44.9462 44.9462 0 0 0 7.808-10.335 45.8602 45.8602 0 0 0 4.573-12.059c.963-4.277 1.281-8.674.946-13.046a45.6702 45.6702 0 0 0-9.463-24.46c-.334-.429-.677-.852-1.027-1.268-.391-.465-1.055.205-.667.667a44.625 44.625 0 0 1 10.072 23.567 44.3799 44.3799 0 0 1-12.909 36.268c-.433.426.234 1.093.667.666Z"/>
    <path fill="#A17BF8" d="M147.118 249.326c.474 3.498 2.853 6.656 5.912 8.717.729.493 1.498.923 2.299 1.286.881.398 1.789.731 2.718.998 4.076 1.191 8.481 1.242 12.766 1.266 4.333.028 8.665.055 12.996.083 3.415.02 6.941.02 10.095-1.29.047-.017.093-.037.138-.059 3.099-1.338 5.738-4.278 5.663-7.642a6.8865 6.8865 0 0 0-.974-3.359 9.8077 9.8077 0 0 0-1.44-1.884c-1.717-1.781-4.1-3.178-6.332-4.302-3.68-1.848-7.839-4.246-8.915-8.045a6.7696 6.7696 0 0 1-.23-1.222c-.253-2.612 1.017-5.014 2.636-7.163.158-.214.324-.427.495-.641.364-.455.74-.902 1.112-1.33.158-.182.316-.368.478-.554 1.496-1.733 3.004-3.585 3.791-5.654.339-.867.528-1.785.558-2.715.087-3.36-3.668-6.743-6.509-5.156-1.393-.135-2.786-.273-4.179-.416-1.71-.17-3.411-.34-5.117-.514h-.004c-.384-.032-.76-.071-1.135-.111-3.55-.352-7.097-.707-10.641-1.065-1.575-.154-3.427-.213-4.452.998-1.116 1.321-.538 3.411.566 4.744 1.104 1.33 2.635 2.272 3.672 3.649a7.9428 7.9428 0 0 1 1.288 2.987 7.9576 7.9576 0 0 1-.018 3.253c-.111.642-.278 1.272-.498 1.884a12.6555 12.6555 0 0 1-1.595 3.075c-2.327 3.261-5.774 5.508-8.833 8.092-3.063 2.588-5.928 5.873-6.347 9.854-.012.114-.024.233-.028.352-.044.628-.023 1.26.064 1.884Z"/>
    <path fill="#E6E6E6" d="M176.248 153.991c-.381-.143-.755-.306-1.119-.488-.019.028-.037.057-.055.085l1.174.403Z"/>
    <path fill="#7EBD28" d="M178.845 145.231c-.207-2.225-1.29-4.402-3.352-5.438a4.9926 4.9926 0 0 0-3.587-.497 4.9955 4.9955 0 0 0-2.98 2.057.9129.9129 0 0 0-.11.565c.025.195.113.377.25.518.304.376.611.75.917 1.125.196.242.549.53.497.882-.075.511-.663.469-1.126.398a.8278.8278 0 0 0-.288-.046c-.032-.005-.069-.011-.097-.014a.898.898 0 0 0-.893.893c0 .079.01.158.031.234l.001.004a11.6797 11.6797 0 0 0 3.578 6.264c.839.795 1.785 1.47 2.809 2.006.106.08.227.138.357.17.129.032.263.038.394.016a.9807.9807 0 0 0 .369-.14.976.976 0 0 0 .283-.275c.377-.531.719-1.086 1.023-1.662 1.221-2.133 2.156-4.561 1.924-7.06Zm14.821 4.75c-.772-.119-1.545-.239-2.317-.36.749-.742 1.591-1.386 2.503-1.916.136-.078.249-.19.327-.326a.874.874 0 0 0 .116-.446c-.188-1.708-.934-3.236-2.54-4.025a4.6829 4.6829 0 0 0-4.609.222c-.81.64-1.519 1.4-2.101 2.252-.77.945-1.544 1.888-2.257 2.877a14.073 14.073 0 0 0-2.727 6.406c-.329 2.578.154 5.194 1.381 7.485.101 1.316.202 2.632.302 3.948.004.155.047.308.127.441.08.134.193.245.328.323.135.078.288.119.444.12a.894.894 0 0 0 .446-.113 20.2853 20.2853 0 0 0 7.678-6.568 20.2824 20.2824 0 0 0 3.555-9.458.8934.8934 0 0 0-.181-.543.894.894 0 0 0-.475-.319Zm-10.249 40.909c.309.015.617.023.922.019 2.634-.016 5.236-.571 7.647-1.629a19.3345 19.3345 0 0 0 6.377-4.524 18.7867 18.7867 0 0 0 3.455-5.41c-.028-.004-.051-.008-.079-.012-1.282-.197-2.568-.399-3.85-.597a12.5876 12.5876 0 0 1 5.243-3.997c.28-1.788.301-3.607.063-5.401-2.896 4.721-9.667 5.1-13.945 8.614a11.533 11.533 0 0 0-3.937 6.66c-.127.645-.194 1.299-.202 1.955a9.088 9.088 0 0 0 0 .467l-.095.214-1.599 3.641Zm-3.42-.737c-.962-2.29-1.707-5.037-4.364-5.818a4.715 4.715 0 0 0-5.721 2.874.9089.9089 0 0 0-.002.466c.041.152.121.292.232.404.297.364.593.729.89 1.094-.367.016-.735.02-1.105.008a.9029.9029 0 0 0-.862.656 20.441 20.441 0 0 0-.564 4.083c-.091.504 0 1.024.256 1.468.403.557.837 1.091 1.302 1.598.457.562.914 1.123 1.37 1.686-.444.019-.889.017-1.336-.006a.9056.9056 0 0 0-.395.096.8978.8978 0 0 0-.312.259.9072.9072 0 0 0-.167.37.8977.8977 0 0 0 .012.406 20.6455 20.6455 0 0 0 6.127 9.746c.112.107.249.183.399.222.15.038.308.038.458-.002a.9039.9039 0 0 0 .636-.615c.049-.139.115-.283.151-.426a.5598.5598 0 0 1 .021-.066c-.024.039-.058.091-.1.154.057-.086.106-.177.146-.271.081-.186.14-.387.209-.578.283-.784.566-1.567.849-2.351.032-.088.061-.179.096-.266a.1794.1794 0 0 0 .078-.022c.251-.115.527-.599.702-.823.245-.312.479-.633.693-.967.796-1.251 1.36-2.636 1.666-4.087.696-3.239-.107-6.296-1.365-9.292Z"/>
    <path fill="#E6E6E6" d="M177.023 208.656c.115-.185.048-.122 0 0Z"/>
    <path fill="#2D9596" fill-opacity=".25" d="m14.2225 374.91 4.5933-7.381.9175 4.218c.1608.739.3217 1.489.4706 2.234 1.3047-1.114 2.6929-2.145 4.0511-3.134a9091.249 9091.249 0 0 0 12.5053-9.091l-1.3047 7.566c-.8044 4.659-1.6445 9.413-3.6342 13.673-.2205.483-.4588.959-.7151 1.424H11.7201a6.2489 6.2489 0 0 1-.3217-1.335.4541.4541 0 0 1-.0058-.089c-.304-2.889 1.2927-5.612 2.8299-8.085Zm294.5445-1.191-4.593-7.382-.918 4.218c-.161.739-.322 1.49-.471 2.235-1.304-1.115-2.692-2.145-4.051-3.134-4.17-3.027-8.338-6.057-12.505-9.092l1.305 7.567c.804 4.659 1.644 9.413 3.634 13.673.221.482.459.959.715 1.423h19.386c.156-.431.264-.879.322-1.334.005-.03.007-.06.006-.089.304-2.89-1.293-5.613-2.83-8.085Zm26.809 0-4.593-7.382-.917 4.218c-.161.739-.322 1.49-.471 2.235-1.305-1.115-2.693-2.145-4.051-3.134-4.171-3.027-8.339-6.057-12.505-9.092l1.304 7.567c.805 4.659 1.645 9.413 3.634 13.673.221.482.459.959.716 1.423h19.386c.156-.431.264-.879.321-1.334.005-.03.007-.06.006-.089.304-2.89-1.292-5.613-2.83-8.085Z"/>
    <path fill="#fff" d="M336.054 157.134h-33.363c-.395 0-.774.157-1.053.437a1.4896 1.4896 0 0 0 0 2.106c.279.279.658.436 1.053.436h33.363c.395 0 .774-.157 1.053-.436a1.4896 1.4896 0 0 0 0-2.106c-.279-.28-.658-.437-1.053-.437Zm-39.32 33.065c1.316 0 2.383-1.067 2.383-2.383s-1.067-2.383-2.383-2.383c-1.317 0-2.384 1.067-2.384 2.383s1.067 2.383 2.384 2.383Z"/>
    <path fill="#3F3D56" d="m247.321 116.569-20.371-1.763-7.036 9.773-8.341 86.386 40.296 3.177 18.056 4.996-22.604-102.569Z"/>
    <path fill="#FFB6B6" d="m209.265 376.514 7.727-.001 3.675-29.803-11.403.001.001 29.803Z"/>
    <path fill="#2F2E41" d="M207.294 373.991h2.175l8.491-3.453 4.551 3.452a9.6992 9.6992 0 0 1 6.857 2.841 9.695 9.695 0 0 1 2.841 6.857v.315l-24.914.001-.001-10.013Z"/>
    <path fill="#FFB6B6" d="m239.208 371.645 7.537 1.701 10.15-28.261-11.124-2.511-6.563 29.071Z"/>
    <path fill="#2F2E41" d="m237.841 368.75 2.121.479 9.043-1.498 3.679 4.37h.001a9.7001 9.7001 0 0 1 6.062 4.281 9.6974 9.6974 0 0 1 1.261 7.314l-.07.308-24.302-5.488 2.205-9.766Zm-38.362-174.437c-3.623 10.925-3.24 22.785.871 35.514l1.757 71.667c-2.905 3.197-3.349 31.802 1.125 41.136 5.976 12.464.481 14.13 4.705 22.399h12.251l5.663-37.462.403-30.365c1.627-3.853.291-17.412.291-17.412l.471-28.115 22.09 49.251c-10.008 8.567-9.107 36.238-9.272 48.512l-3.282 14.482 15.079 1.348 6.654-19.64 7.482-12.103c3.812-21.445 4.943-37.189 1.692-43.62L245.284 207.4l-45.805-13.087Z"/>
    <path fill="#7EBD28" d="M197.022 194.896c.042.877.223 1.742.536 2.562.036.101.071.196.113.298a8.4765 8.4765 0 0 0 3.706 4.14c.49.276 1.007.502 1.543.673l4.641.745 39.91 6.381 1.603-4.82-3.021-7.554 2.002-6.494.453-62.925v-.048l-7.251-11.563-.059-7.31-20.245-.495-2.198 5.576-4.343 2.598c-9.628 5.755-13.095 16.294-12.886 27.512 3.318 12.851.875 27.138-1.597 42.455l-2.02 4.039a8.5204 8.5204 0 0 0-.887 4.23Z"/>
    <path fill="#000" d="M197.021 194.896c.043.877.224 1.742.537 2.562l3.819 4.438c.49.276 1.007.502 1.543.673l4.641.745-6.715-12.624 14.757-32.309-18.582 36.515Z" opacity=".2"/>
    <path fill="#3F3D56" d="m239.125 115.826-20.37-1.764a36.8468 36.8468 0 0 0-14.582 11.981 36.8361 36.8361 0 0 0-6.736 17.629l-6.716 63.123 43.276 7.347 18.055 4.995-12.927-103.311Z"/>
    <path fill="#FFB8B8" d="M214.372 88.0216a18.8545 18.8545 0 0 0 7.274 12.4524 18.8594 18.8594 0 0 0 13.948 3.669 18.8512 18.8512 0 0 0 12.459-7.2628 18.853 18.853 0 0 0 3.682-13.9438l-.036-.2676a18.8551 18.8551 0 0 0-7.435-12.2029 18.8551 18.8551 0 0 0-13.859-3.4832 18.8521 18.8521 0 0 0-12.321 7.2375 18.852 18.852 0 0 0-3.706 13.8006l-.006.0008Z"/>
    <path fill="#2F2E41" d="M219.17 97.7328c-.968-1.9668-1.962-4.0784-1.69-6.2536.272-2.1752 2.405-4.2544 4.5-3.6079 1.252.3865 2.199 1.6234 3.508 1.6867 1.802.0871 2.835-1.9747 3.396-3.689l2.283-6.9818a18.9007 18.9007 0 0 0 7.449 3.526c2.712.6129 5.526.6195 8.241.0194 2.12-.4848 4.263-1.4301 5.506-3.2145 1.244-1.7845 1.237-4.5524-.469-5.9018-.837-.6616-1.95-.913-2.75-1.619a3.0856 3.0856 0 0 1-.974-1.6712 3.0807 3.0807 0 0 1 3.434-3.6899l-5.75-.7187 1.713-3.0988c-1.234.9732-2.952 1.1041-4.499.8255-1.548-.2786-3.005-.9156-4.518-1.3404-7.266-2.0394-15.71 1.5065-19.342 8.1219a7.3622 7.3622 0 0 0-4.374-.09 7.3593 7.3593 0 0 0-3.652 2.4076c-1.54 1.9538-1.958 4.5611-2.018 7.0477a30.5748 30.5748 0 0 0 3.117 14.1642 11.6163 11.6163 0 0 0 2.619 3.7144 5.2344 5.2344 0 0 0 1.951 1.1537 5.2364 5.2364 0 0 0 2.255.222"/>
    <path fill="#CCC" d="m234.771 212.717-38.657-7.194 12.427-66.77c.472-2.539 1.44-4.959 2.848-7.123a19.665 19.665 0 0 1 5.356-5.491 19.6638 19.6638 0 0 1 14.721-3.118 19.668 19.668 0 0 1 7.123 2.848 19.6686 19.6686 0 0 1 5.491 5.357 19.6638 19.6638 0 0 1 3.023 7.05c.535 2.526.567 5.133.094 7.671l-12.426 66.77Zm-35.878-9.1 33.971 6.322 11.991-64.428c.416-2.231.389-4.523-.081-6.743a17.2644 17.2644 0 0 0-2.655-6.199 17.287 17.287 0 0 0-4.826-4.71 17.3024 17.3024 0 0 0-6.261-2.504 17.2927 17.2927 0 0 0-6.743.084c-2.22.471-4.326 1.374-6.197 2.659a17.2735 17.2735 0 0 0-4.708 4.828 17.2889 17.2889 0 0 0-2.5 6.262l-11.991 64.429Z"/>
    <path fill="#CCC" d="m186.857 233.614 43.421 9.429c2.479.538 4.925-1.035 5.463-3.513l6.349-29.242c.539-2.478-1.034-4.924-3.513-5.462l-43.422-9.429c-2.479-.538-4.924 1.035-5.462 3.514l-6.35 29.241c-.538 2.478 1.035 4.924 3.514 5.462Z"/>
    <path fill="#7EBD28" d="M212.01 205.683v9.008l.458.102.56.125 15.455 3.425h.012l4.73 1.049h.202c.164 0 .327-.033.477-.097.151-.065.287-.159.399-.278.204-.221.317-.51.316-.811v-12.523c.001-.183-.041-.364-.124-.528a1.153 1.153 0 0 0-.353-.413.4405.4405 0 0 0-.077-.066 1.5245 1.5245 0 0 0-.28-.125.0621.0621 0 0 0-.03-.006.0218.0218 0 0 0-.008-.005c-.003-.001-.007-.001-.01-.001-.101-.026-.205-.04-.31-.041h-20.25c-.245-.001-.483.078-.679.226a1.1792 1.1792 0 0 0-.488.959Z"/>
    <path fill="#7EBD28" d="M212.01 205.683v9.008l.458.102.56.125a4.1995 4.1995 0 0 1-.131-.531.8376.8376 0 0 1-.023-.113 4.7471 4.7471 0 0 1-.066-.78v-7.811a.388.388 0 0 1 .117-.274.3905.3905 0 0 1 .276-.113h20.226c.104 0 .203.04.277.113a.388.388 0 0 1 .117.274v11.51c-.003.29-.118.567-.322.773-.204.205-.479.324-.769.33-.411.006-.953.012-1.596.018-.751.011-1.645.023-2.639.029l4.73 1.049h.202c.164 0 .327-.033.477-.097.151-.065.287-.159.399-.278.204-.221.317-.51.316-.811v-12.523c.001-.183-.041-.364-.124-.528a1.153 1.153 0 0 0-.353-.413.4405.4405 0 0 0-.077-.066 1.5245 1.5245 0 0 0-.28-.125.0621.0621 0 0 0-.03-.006.0218.0218 0 0 0-.008-.005c-.003-.001-.007-.001-.01-.001-.101-.026-.205-.04-.31-.041h-20.25c-.245-.001-.483.078-.679.226a1.1792 1.1792 0 0 0-.488.959Zm0 8.144v.251l.864.196a4.7471 4.7471 0 0 1-.066-.78v-.429c-.262.262-.53.512-.798.762Z"/>
    <path fill="#689C22" d="M215.869 212.491h15.411a.6639.6639 0 0 0 .623-.437l2.38-6.64a.6504.6504 0 0 0 .037-.255.654.654 0 0 0-.063-.249.6327.6327 0 0 0-.154-.205.6354.6354 0 0 0-.221-.131.6625.6625 0 0 0-.221-.038l-20.669-.037h-.001a.6562.6562 0 0 0-.552.294.6615.6615 0 0 0-.107.304c-.009.109.008.218.051.318l.036-.015-.036.015 2.878 6.677c.051.119.136.22.244.291.108.07.234.108.364.108Z"/>
    <path fill="#fff" d="M223.326 214.128c.909 0 1.647-.733 1.647-1.637 0-.905-.738-1.638-1.647-1.638-.91 0-1.647.733-1.647 1.638 0 .904.737 1.637 1.647 1.637Z"/>
    <path fill="#7EBD28" d="m195.614 211.063.382.083.738.161 7.596 1.686 6.947 1.537.733.161.458.102.429-.406.096-.089 2.287-2.169 5.607-5.308c.204-.193.333-.452.364-.732.03-.279-.04-.56-.198-.793a.688.688 0 0 0-.119-.155l-.595-.631-.012-.012-8.002-8.448a1.163 1.163 0 0 0-.465-.303 1.1816 1.1816 0 0 0-.553-.055c-.02 0-.04.002-.06.006a1.173 1.173 0 0 0-.363.137c-.087.047-.167.105-.239.173l-14.691 13.911-.012.012c-.148.142-.255.321-.31.518-.018.048-.024.09-.036.126-.024.162-.017.328.018.488Z"/>
    <path fill="#7EBD28" d="m195.614 211.063.382.083.738.161-.25-.262a.391.391 0 0 1-.098-.198.383.383 0 0 1 .027-.219.355.355 0 0 1 .089-.131l14.692-13.911c.036-.036.08-.063.128-.082a.377.377 0 0 1 .149-.025c.051.001.102.013.148.035a.376.376 0 0 1 .123.09l.715.75 6.761 7.144.012.012.429.452c.092.097.165.21.215.334.082.204.103.427.058.643-.044.215-.152.412-.308.566-.9.876-2.663 2.586-4.784 4.612-.65.631-1.327 1.281-2.032 1.948-.262.262-.53.512-.798.762-.072.072-.143.143-.215.203-.173.173-.345.334-.518.5l.733.161.458.102.429-.406.096-.089 2.287-2.169 5.607-5.308c.204-.193.333-.452.364-.732.03-.279-.04-.56-.198-.793a.688.688 0 0 0-.119-.155l-.595-.631-.012-.012-8.002-8.448a1.163 1.163 0 0 0-.465-.303 1.1816 1.1816 0 0 0-.553-.055c-.02 0-.04.002-.06.006a1.173 1.173 0 0 0-.363.137c-.087.047-.167.105-.239.173l-14.691 13.911-.012.012c-.148.142-.255.321-.31.518-.018.048-.024.09-.036.126-.024.162-.017.328.018.488Z"/>
    <path fill="#689C22" d="M195.596 210.545v.03a.646.646 0 0 0 .179.417c.063.065.138.117.221.154l.738.161 7.596 1.686.53-.5 2.747-2.604 2.395-2.264 2.008-1.906.363-.34.93-.881 1.274-1.21c.1-.093.169-.214.196-.347a.6517.6517 0 0 0-.041-.397l-2.276-5.19-.56-1.269a.6525.6525 0 0 0-.237-.283.6588.6588 0 0 0-.352-.11c-.02 0-.04.002-.06.006a.493.493 0 0 0-.22.054c-.052.02-.1.049-.143.083-.018.012-.03.03-.048.042l-14.882 14.042-.012.012-.137.131a.8303.8303 0 0 0-.197.381.2944.2944 0 0 0-.012.102Z"/>
    <path fill="#fff" d="M209.93 209.948c.66-.626.691-1.665.069-2.322-.621-.656-1.661-.682-2.321-.056-.661.625-.692 1.664-.07 2.321.622.657 1.661.682 2.322.057Z"/>
    <path fill="#CCC" d="m193.952 210.694 1.662.369.381.083.739.161 7.596 1.686 6.947 1.537.733.161.458.102.56.125 15.455 3.425h.012l4.73 1.049 2.234.494 5.278-10.741-.536-.262-5.07 10.318-.828-.184-3.169-.703-18.141-4.016-.119-.024-.864-.196-.215-.048-6.935-1.537-8.447-1.865-.781-.179-.024-.006-1.036-.226.583-11.665-.595-.024-.608 12.166Z"/>
    <path fill="#2F2E41" d="M402 384.714c0 .093-.018.186-.053.272a.715.715 0 0 1-.154.23.715.715 0 0 1-.23.154.7277.7277 0 0 1-.272.053H.7637a.7091.7091 0 0 1-.5013-.208.7084.7084 0 0 1 0-1.002.7091.7091 0 0 1 .5013-.208H401.291c.093 0 .185.018.272.054.086.035.164.087.23.153s.118.144.154.231c.035.086.053.178.053.271Z"/>
    <path fill="#FFB6B6" d="M237.316 226.156a6.0303 6.0303 0 0 1-1.871-1.827 6.0403 6.0403 0 0 1-.724-5.057 6.046 6.046 0 0 1 1.285-2.279l-17.633-22.248-2.642-29.333 13.085 1.051.312 22.728 15.765 27.59a6.0765 6.0765 0 0 1 1.718 3.955 6.0765 6.0765 0 0 1-1.342 4.098 6.0707 6.0707 0 0 1-3.725 2.172 6.0651 6.0651 0 0 1-4.228-.85Z"/>
    <path fill="#7EBD28" d="M215.115 145.952c.276 5.402-.251 35.459 2.104 42.59a4.7378 4.7378 0 0 0-1.96 2.366 4.74 4.74 0 0 0-.099 3.071l15.276-3.207c1.787-3.051-.144-4.409-1.435-4.922l1.944-10.174 4.152-36.456c.18-1.58-.065-3.18-.709-4.634a8.9426 8.9426 0 0 0-2.957-3.638 8.9441 8.9441 0 0 0-3.71-1.548 8.9625 8.9625 0 0 0-4.014.232 8.9505 8.9505 0 0 0-3.507 1.966 8.9399 8.9399 0 0 0-2.294 3.302c-1.595 3.949-2.937 8.196-2.791 11.052Z"/>
  </g>
  <defs>
    <clipPath id="a">
      <path fill="#fff" d="M0 0h402v385.423H0z"/>
    </clipPath>
  </defs>
</svg>
